<svg xmlns:xlink="http://www.w3.org/1999/xlink" _ngcontent-ng-c1875793522="" xmlns="http://www.w3.org/2000/svg" width="36.94" height="30.66" viewBox="0 0 104.71 86.92"><title _ngcontent-ng-c1875793522="">icon_xl_observatorio_disabilities_wheelchair-pc</title><path _ngcontent-ng-c1875793522="" d="M24.5,69.12A7.11,7.11,0,1,0,17.38,62,7.13,7.13,0,0,0,24.5,69.12Zm0-11.22A4.1,4.1,0,1,1,20.39,62,4.11,4.11,0,0,1,24.5,57.9Z" fill="#333333"></path><path _ngcontent-ng-c1875793522="" d="M90.69,82.21a1.51,1.51,0,1,0,1.07.44A1.52,1.52,0,0,0,90.69,82.21Z" fill="#333333"></path><path _ngcontent-ng-c1875793522="" d="M101.53,35.68h-8l.46-.76a7.73,7.73,0,0,0,.19-7.64L87.43,14.73l-.06-.11V5.39a1.51,1.51,0,0,0-3,0V30a1.51,1.51,0,0,0,3,0V21l.94,1.76,3.18,5.94a4.74,4.74,0,0,1-4.18,7H76.55l0-.47a7.12,7.12,0,0,0-12-4.8l-.44.42-.32-.52A5.7,5.7,0,0,0,59,27.65H50.7c-2.14,0-4.09-2.17-6-4.26-1.31-1.45-2.54-2.83-3.65-3.28l-.75-.31.61-.53a8.56,8.56,0,1,0-11.1.15l.49.4-.51.38a9.06,9.06,0,0,0-3.66,7.3V38.83l-.52,0-1.14,0a23.24,23.24,0,0,0-6.3.87l-.64.18V29.37A1.51,1.51,0,0,0,16,27.87H6.26a5,5,0,1,0,0,10h8.28V41l-.28.14A23.23,23.23,0,0,0,3,71a1.51,1.51,0,1,0,2.78-1.16A20.22,20.22,0,1,1,16.26,80.48,1.51,1.51,0,1,0,15,83.23a23.26,23.26,0,0,0,28-7.26l.15-.2h9l-.31.7A6.17,6.17,0,0,0,51.38,79a6.24,6.24,0,0,0,12.49,0,6.17,6.17,0,0,0-.54-2.52l-.31-.7H66.7v8a1.51,1.51,0,0,0,3,0v-37H89.18v29a1.51,1.51,0,0,0,3,0v-29h9.33A1.51,1.51,0,0,0,103,45.21v-8A1.51,1.51,0,0,0,101.53,35.68Zm-87-4.3v3.5H6.26a2,2,0,1,1,0-4h8.28Zm50.78,3.74a4.11,4.11,0,0,1,8.18,0l.06.56h-8.3ZM29.75,12.84a5.54,5.54,0,1,1,5.68,5.54h-.28A5.58,5.58,0,0,1,29.75,12.84ZM41.42,37.18v8.87l-.85-.81a23.24,23.24,0,0,0-11-5.91l-.39-.09V27.5a6.15,6.15,0,0,1,6-6.11h.26a6.06,6.06,0,0,1,2.65.65,23.5,23.5,0,0,1,4.71,3.73c2.59,2.4,5.27,4.89,7.93,4.89H59a2.57,2.57,0,0,1,2.59,2.27,2.51,2.51,0,0,1-2.5,2.74H42.93A1.51,1.51,0,0,0,41.42,37.18ZM53.23,72.76H45.12l.35-.72a23,23,0,0,0,2.28-10c0-.25,0-.5,0-.74l-.08-2.49,1,2.27,5,11,.32.71Zm4.39,9.46A3.23,3.23,0,1,1,60.85,79,3.23,3.23,0,0,1,57.62,82.22Zm6.66-9.46h-7l-.13-.29L50.41,57.54A1.51,1.51,0,0,0,49,56.66H47.13l-.1-.38a23,23,0,0,0-2.7-6.38l-.47-.76h3A7.6,7.6,0,0,1,54,54l5.5,14.13a1.5,1.5,0,0,0,1.41,1,3.93,3.93,0,0,1,3.84,3l.15.62ZM66.7,47.21V69l-.85-.85a6.93,6.93,0,0,0-3.58-1.9L62,66.17l-.1-.26-5.06-13a10.59,10.59,0,0,0-9.93-6.79H44.43V38.69H55.85v6.52a1.51,1.51,0,0,0,1.51,1.51H66.7Zm33.33-8V43.7H58.87v-5H100Z" fill="#333333"></path><rect _ngcontent-ng-c1875793522="" x="6.26" y="34.38"></rect><circle _ngcontent-ng-c1875793522="" cx="8.95" cy="77.19" r="1.51" fill="#333333"></circle></svg>