<svg xmlns:xlink="http://www.w3.org/1999/xlink" _ngcontent-ng-c1875793522="" xmlns="http://www.w3.org/2000/svg" width="30.3" height="30.3" viewBox="0 0 85.9 85.9"><title _ngcontent-ng-c1875793522="">icon_xl_observatorio_disabilities_old-age</title><path _ngcontent-ng-c1875793522="" d="M75.3,66.55h-.74a3.27,3.27,0,0,0,.08-.7V64.22A3.15,3.15,0,0,0,71.53,61h-.22V59.6A20.43,20.43,0,0,0,67,47a19.62,19.62,0,0,0-9.07-6.42A19.92,19.92,0,0,0,61.56,29v-.46h1.64A4.87,4.87,0,0,0,68,23.6a5,5,0,0,0-1.9-3.93V14.5a5.7,5.7,0,0,0-5.31-5.75A12.33,12.33,0,0,0,49.27.53H45a1.23,1.23,0,0,0-1.21,1.25A1.23,1.23,0,0,0,45,3h4.32a10,10,0,0,1,9.86,10.13V29a17.3,17.3,0,0,1-5.51,12.69,11.89,11.89,0,0,0,.15-1.88V36.45a5.81,5.81,0,0,0-5.72-5.88H37a5.81,5.81,0,0,0-5.72,5.88V39.8a11.89,11.89,0,0,0,.15,1.88A17.3,17.3,0,0,1,25.92,29V13.15A10,10,0,0,1,35.79,3h4.32a1.23,1.23,0,0,0,1.21-1.25A1.23,1.23,0,0,0,40.11.53H35.79A12.33,12.33,0,0,0,24.27,8.75,5.7,5.7,0,0,0,19,14.5v5.17A5,5,0,0,0,17,23.6a4.87,4.87,0,0,0,4.8,4.93H23.5V29a19.92,19.92,0,0,0,3.68,11.55A19.62,19.62,0,0,0,18.11,47,20.43,20.43,0,0,0,13.75,59.6V82.92a2.63,2.63,0,0,0,2.59,2.66H27.49a1.25,1.25,0,0,0,0-2.49H16.34a.17.17,0,0,1-.17-.17V59.6A17.89,17.89,0,0,1,20,48.54a17.13,17.13,0,0,1,8.9-5.91A19.11,19.11,0,0,0,33,45.92,11.59,11.59,0,0,0,34.63,48v.89a7.91,7.91,0,1,0,15.81,0V48a11.59,11.59,0,0,0,1.64-2.11,19.1,19.1,0,0,0,4.1-3.29,17.14,17.14,0,0,1,8.9,5.91A17.89,17.89,0,0,1,68.89,59.6V61H66a1.25,1.25,0,0,0,0,2.49h5.53a.69.69,0,0,1,.68.7v1.63a.69.69,0,0,1-.68.7H59a.69.69,0,0,1-.68-.7V64.22a.69.69,0,0,1,.68-.7h2.15a1.25,1.25,0,0,0,0-2.49H59a3.15,3.15,0,0,0-3.1,3.19v1.63A3.22,3.22,0,0,0,57,68.28a8.89,8.89,0,0,0-4.91,5H47.82A8.92,8.92,0,1,0,33.44,83.1h-1.1a1.25,1.25,0,0,0,0,2.49h43a3.15,3.15,0,0,0,3.1-3.19V80.77a3.22,3.22,0,0,0-.65-1.94,3.23,3.23,0,0,0,.65-1.94V75.25a3.22,3.22,0,0,0-.65-1.94,3.23,3.23,0,0,0,.65-1.94V69.73h0A3.15,3.15,0,0,0,75.3,66.55ZM65.59,23.6A2.41,2.41,0,0,1,63.21,26H61.56V21.16h1.64A2.41,2.41,0,0,1,65.59,23.6Zm-1.9-9.1v4.19c-.4,0-.56,0-2.12,0V13.15a13,13,0,0,0-.12-1.77A3.26,3.26,0,0,1,63.68,14.5ZM23.5,26H21.85a2.44,2.44,0,0,1,0-4.88H23.5Zm0-12.89v5.52c-1.56,0-1.71,0-2.12,0V14.5a3.26,3.26,0,0,1,2.24-3.12A13,13,0,0,0,23.5,13.15Zm19,41.39A5.53,5.53,0,0,1,37.15,50a11,11,0,0,0,10.76,0A5.53,5.53,0,0,1,42.53,54.54ZM51.36,39.8a8.83,8.83,0,1,1-17.65,0V36.45h0A3.35,3.35,0,0,1,37,33.07H48.06a3.35,3.35,0,0,1,3.3,3.39ZM33,76.63a6.6,6.6,0,1,1,7.94,6.47H38.23A6.61,6.61,0,0,1,33,76.63ZM45.7,83.1a8.89,8.89,0,0,0,2.79-6.47c0-.23,0-.46,0-.7h3q0,.34,0,.69a9.05,9.05,0,0,0,2.7,6.47Zm14.45,0a6.47,6.47,0,1,1,6.3-6.47A6.39,6.39,0,0,1,60.15,83.1ZM76,82.4a.69.69,0,0,1-.68.7H66.18a9,9,0,0,0,2-3H75.3a.69.69,0,0,1,.68.7Zm0-5.52a.69.69,0,0,1-.68.7H68.83a9.15,9.15,0,0,0-.19-3H75.3a.69.69,0,0,1,.68.7Zm0-5.52a.69.69,0,0,1-.68.7H67.65a8.92,8.92,0,0,0-2.87-3H75.3a.69.69,0,0,1,.68.7Z" fill="#333333"></path><path _ngcontent-ng-c1875793522="" d="M50.69,8.12a1.23,1.23,0,0,0-1.21-1.25H35.58a1.25,1.25,0,0,0,0,2.49h13.9A1.23,1.23,0,0,0,50.69,8.12Z" fill="#333333"></path><path _ngcontent-ng-c1875793522="" d="M38.81,11.09a1.25,1.25,0,0,0,0,2.49h7.43a1.25,1.25,0,0,0,0-2.49Z" fill="#333333"></path></svg>