<svg xmlns:xlink="http://www.w3.org/1999/xlink" _ngcontent-ng-c1875793522="" xmlns="http://www.w3.org/2000/svg" width="32.75" height="30.93" viewBox="0 0 92.84 87.66"><title _ngcontent-ng-c1875793522="">icon_xl_observatorio_disabilities_injured-arm</title><path _ngcontent-ng-c1875793522="" d="M19.17,55.59c-5.66,2.94-8.53,6.82-8.53,11.54V80.59a7.17,7.17,0,0,0,7.15,7.16h26.8a7.17,7.17,0,0,0,7-5.88H78.3c2.22,0,3.13-.91,3.13-3.16V67.14a10.6,10.6,0,0,0-1.48-5.46A1.28,1.28,0,1,0,77.74,63a8,8,0,0,1,1.13,4.16V78.72a4.75,4.75,0,0,1,0,.57,4.12,4.12,0,0,1-.54,0H51.63a7.18,7.18,0,0,0-5.37-5.67L66,55.52a34.74,34.74,0,0,1,7.33,3.27,1.28,1.28,0,1,0,1.36-2.18,38.54,38.54,0,0,0-8.56-3.75l-.1,0c-2.71-.86-9.95-2.68-10-2.69V46a23.75,23.75,0,0,0,8.33-11.11c3.86-.38,6.48-2.83,6.48-6.18V26.87a4.29,4.29,0,0,0-4.27-4.31H65.17v-3.2a19.13,19.13,0,0,0-38.27,0v3.2H25.45a4.29,4.29,0,0,0-4.27,4.31v1.88c0,3.36,2.62,5.8,6.49,6.18A23.75,23.75,0,0,0,36,46v4.11S30.7,51.48,29,52h0a51.41,51.41,0,0,0-9.78,3.62ZM26.9,30.47A12.59,12.59,0,0,0,27,32.23c-1.8-.42-3.28-1.54-3.28-3.48V26.87a1.75,1.75,0,0,1,1.7-1.74H26.9v5.35ZM65,32.22a12.61,12.61,0,0,0,.13-1.75V25.12h1.45a1.75,1.75,0,0,1,1.7,1.74v1.88C68.31,30.68,66.84,31.81,65,32.22ZM36.46,52.69a2.47,2.47,0,0,0,2.1-2.54V47.68a19.46,19.46,0,0,0,2.55,1.17,12.87,12.87,0,0,0,9.84,0,19.48,19.48,0,0,0,2.55-1.17v2.47a2.73,2.73,0,0,0,.22,1.12L42.18,58.21c-4.64-.6-8-2-10.48-4.32l2.82-.71ZM46,2.8a16.59,16.59,0,0,1,16.56,16,8.16,8.16,0,0,0-4.78-1.44,9.49,9.49,0,0,0-4.37,1.35,15.36,15.36,0,0,1-14.83,0,9.49,9.49,0,0,0-4.37-1.35,8.15,8.15,0,0,0-4.77,1.44A16.59,16.59,0,0,1,46,2.8ZM62.17,33.46a21.08,21.08,0,0,1-12.11,13,10.34,10.34,0,0,1-8.05,0,21.08,21.08,0,0,1-12.11-13,1.25,1.25,0,0,0,0-.18,11.12,11.12,0,0,1-.39-2.81v-6c0-3.88,3-4.46,4.78-4.46A7.37,7.37,0,0,1,37.47,21a17.91,17.91,0,0,0,17.12,0A7.38,7.38,0,0,1,57.82,20c1.79,0,4.78.58,4.78,4.46v6a11.11,11.11,0,0,1-.39,2.81,1.25,1.25,0,0,0,0,.17ZM33.66,85.19l10-9.19h.91a4.6,4.6,0,0,1,4.59,4.45,1.31,1.31,0,0,0,0,.28,4.6,4.6,0,0,1-4.59,4.46ZM13.2,75.62V67.14c0-6.88,8.09-10.31,15.67-12.48a17.88,17.88,0,0,0,10,5.57l-9.38,5.64a1.28,1.28,0,1,0,1.32,2.2l12.36-7.42h0l13-7.81c.45.11,5.1,1.27,7,1.83L29.87,85.19H17.79a4.6,4.6,0,0,1-4.59-4.6v-2l12-7.23a1.28,1.28,0,0,0-1.32-2.2L13.2,75.62Z" fill="#333333"></path></svg>