<svg xmlns:xlink="http://www.w3.org/1999/xlink" _ngcontent-ng-c1875793522="" xmlns="http://www.w3.org/2000/svg" width="30.87" height="30.87" viewBox="0 0 87.49 87.49"><title _ngcontent-ng-c1875793522="">icon_xl_observatorio_disabilities_braille</title><ellipse _ngcontent-ng-c1875793522="" cx="52.74" cy="28.19" rx="4.5" ry="4.38" style="" fill="none"></ellipse><ellipse _ngcontent-ng-c1875793522="" cx="36.42" cy="28.19" rx="4.5" ry="4.38" style="" fill="none"></ellipse><path _ngcontent-ng-c1875793522="" d="M29.45,26.61a3.3,3.3,0,0,0,.19,6.51,14.45,14.45,0,0,1-.19-2.34Z" style="" fill="none"></path><path _ngcontent-ng-c1875793522="" d="M59.71,26.61v4.17a14.45,14.45,0,0,1-.19,2.34,3.3,3.3,0,0,0,.19-6.51Z" style="" fill="none"></path><path _ngcontent-ng-c1875793522="" d="M44.58,10.8c-4.33,0-7.68,1.48-10,4.4a13.07,13.07,0,0,0-2.7,7.68V23a7,7,0,0,1,4.51-1.63A6.88,6.88,0,0,1,43.26,27H45.9a6.88,6.88,0,0,1,6.84-5.58A7,7,0,0,1,57.26,23v-.15a13.07,13.07,0,0,0-2.7-7.68C52.26,12.29,48.91,10.8,44.58,10.8Z" style="" fill="none"></path><path _ngcontent-ng-c1875793522="" d="M64.18,32.45A5.66,5.66,0,0,0,64,26.88c1.41-8.94.07-15.83-4-20.46C55.32,1.05,48.33.25,44.58.25a22.94,22.94,0,0,0-11,2.63,1.19,1.19,0,0,0-.58.73,1.17,1.17,0,0,0,.12.91A1.25,1.25,0,0,0,34.77,5a20.44,20.44,0,0,1,9.81-2.32c3.33,0,9.51.69,13.55,5.33,3.31,3.79,4.53,9.46,3.65,16.86a5.89,5.89,0,0,0-2.07-.66V22.89a15.33,15.33,0,0,0-3.21-9.14C54.59,11.31,51,8.4,44.58,8.4s-10,2.91-11.92,5.35a15.33,15.33,0,0,0-3.21,9.14v1.28a5.9,5.9,0,0,0-2.07.66c-.94-7.79.47-13.65,4.18-17.43a1.18,1.18,0,0,0,0-1.7,1.25,1.25,0,0,0-1.73,0c-4.54,4.62-6.08,11.73-4.6,21.14a5.58,5.58,0,0,0-.85,3,5.8,5.8,0,0,0,5.86,5.72h.07a14.82,14.82,0,0,0,3.6,5.62l0,0h3.9L37.46,41a12.31,12.31,0,0,1-5.22-7.39A7.07,7.07,0,0,0,36.42,35a6.88,6.88,0,0,0,6.84-5.58H45.9A6.88,6.88,0,0,0,52.74,35a7.07,7.07,0,0,0,4.18-1.37A12.31,12.31,0,0,1,51.7,41l-.34.23h4.8L55.79,41l-.12-.07-.07,0a14.82,14.82,0,0,0,3.29-5.31H59a6,6,0,0,0,3.61-1.22A4.68,4.68,0,0,1,63.4,37a4.76,4.76,0,0,1-2.2,4l-.35.23h3.6l0-.05A7,7,0,0,0,65.86,37,7.1,7.1,0,0,0,64.18,32.45Zm-37.39-2.6a3.33,3.33,0,0,1,2.66-3.24v4.17a14.45,14.45,0,0,0,.19,2.34A3.34,3.34,0,0,1,26.79,29.85Zm9.63,2.72a4.38,4.38,0,1,1,4.5-4.38A4.44,4.44,0,0,1,36.42,32.57Zm16.32,0a4.38,4.38,0,1,1,4.5-4.38A4.44,4.44,0,0,1,52.74,32.57ZM57.26,23a7,7,0,0,0-4.51-1.63A6.88,6.88,0,0,0,45.9,27H43.26a6.88,6.88,0,0,0-6.84-5.58A7,7,0,0,0,31.91,23v-.15a13.07,13.07,0,0,1,2.7-7.68c2.29-2.92,5.65-4.4,10-4.4s7.68,1.48,10,4.4a13.07,13.07,0,0,1,2.7,7.68Zm2.27,10.08a14.45,14.45,0,0,0,.19-2.34V26.61a3.3,3.3,0,0,1-.19,6.51Z" fill="#333333"></path><ellipse _ngcontent-ng-c1875793522="" cx="24.2" cy="50.43" rx="1.22" ry="1.13" fill="#333333"></ellipse><ellipse _ngcontent-ng-c1875793522="" cx="29.56" cy="50.43" rx="1.22" ry="1.13" fill="#333333"></ellipse><ellipse _ngcontent-ng-c1875793522="" cx="40.29" cy="50.43" rx="1.22" ry="1.13" fill="#333333"></ellipse><ellipse _ngcontent-ng-c1875793522="" cx="18.84" cy="54.77" rx="1.22" ry="1.13" fill="#333333"></ellipse><ellipse _ngcontent-ng-c1875793522="" cx="29.56" cy="54.77" rx="1.22" ry="1.13" fill="#333333"></ellipse><ellipse _ngcontent-ng-c1875793522="" cx="40.29" cy="54.77" rx="1.22" ry="1.13" fill="#333333"></ellipse><ellipse _ngcontent-ng-c1875793522="" cx="24.2" cy="59.11" rx="1.22" ry="1.13" fill="#333333"></ellipse><ellipse _ngcontent-ng-c1875793522="" cx="34.93" cy="59.11" rx="1.22" ry="1.13" fill="#333333"></ellipse><ellipse _ngcontent-ng-c1875793522="" cx="18.84" cy="63.44" rx="1.22" ry="1.13" fill="#333333"></ellipse><ellipse _ngcontent-ng-c1875793522="" cx="24.2" cy="63.44" rx="1.22" ry="1.13" fill="#333333"></ellipse><ellipse _ngcontent-ng-c1875793522="" cx="29.56" cy="63.44" rx="1.22" ry="1.13" fill="#333333"></ellipse><ellipse _ngcontent-ng-c1875793522="" cx="34.93" cy="63.44" rx="1.22" ry="1.13" fill="#333333"></ellipse><ellipse _ngcontent-ng-c1875793522="" cx="18.84" cy="67.78" rx="1.22" ry="1.13" fill="#333333"></ellipse><ellipse _ngcontent-ng-c1875793522="" cx="29.56" cy="67.78" rx="1.22" ry="1.13" fill="#333333"></ellipse><ellipse _ngcontent-ng-c1875793522="" cx="40.29" cy="67.78" rx="1.22" ry="1.13" fill="#333333"></ellipse><ellipse _ngcontent-ng-c1875793522="" cx="24.2" cy="72.12" rx="1.22" ry="1.13" fill="#333333"></ellipse><ellipse _ngcontent-ng-c1875793522="" cx="29.56" cy="72.12" rx="1.22" ry="1.13" fill="#333333"></ellipse><ellipse _ngcontent-ng-c1875793522="" cx="40.29" cy="72.12" rx="1.22" ry="1.13" fill="#333333"></ellipse><ellipse _ngcontent-ng-c1875793522="" cx="18.84" cy="76.45" rx="1.22" ry="1.13" fill="#333333"></ellipse><ellipse _ngcontent-ng-c1875793522="" cx="24.2" cy="76.45" rx="1.22" ry="1.13" fill="#333333"></ellipse><ellipse _ngcontent-ng-c1875793522="" cx="34.93" cy="76.45" rx="1.22" ry="1.13" fill="#333333"></ellipse><ellipse _ngcontent-ng-c1875793522="" cx="51.03" cy="50.43" rx="1.22" ry="1.13" fill="#333333"></ellipse><ellipse _ngcontent-ng-c1875793522="" cx="56.39" cy="50.43" rx="1.22" ry="1.13" fill="#333333"></ellipse><ellipse _ngcontent-ng-c1875793522="" cx="72.49" cy="50.43" rx="1.22" ry="1.13" fill="#333333"></ellipse><ellipse _ngcontent-ng-c1875793522="" cx="61.76" cy="54.77" rx="1.22" ry="1.13" fill="#333333"></ellipse><ellipse _ngcontent-ng-c1875793522="" cx="67.12" cy="54.77" rx="1.22" ry="1.13" fill="#333333"></ellipse><ellipse _ngcontent-ng-c1875793522="" cx="51.03" cy="59.11" rx="1.22" ry="1.13" fill="#333333"></ellipse><ellipse _ngcontent-ng-c1875793522="" cx="56.39" cy="59.11" rx="1.22" ry="1.13" fill="#333333"></ellipse><ellipse _ngcontent-ng-c1875793522="" cx="61.76" cy="59.11" rx="1.22" ry="1.13" fill="#333333"></ellipse><ellipse _ngcontent-ng-c1875793522="" cx="72.49" cy="59.11" rx="1.22" ry="1.13" fill="#333333"></ellipse><ellipse _ngcontent-ng-c1875793522="" cx="51.03" cy="63.44" rx="1.22" ry="1.13" fill="#333333"></ellipse><ellipse _ngcontent-ng-c1875793522="" cx="61.76" cy="63.44" rx="1.22" ry="1.13" fill="#333333"></ellipse><ellipse _ngcontent-ng-c1875793522="" cx="67.12" cy="63.44" rx="1.22" ry="1.13" fill="#333333"></ellipse><ellipse _ngcontent-ng-c1875793522="" cx="72.49" cy="63.44" rx="1.22" ry="1.13" fill="#333333"></ellipse><ellipse _ngcontent-ng-c1875793522="" cx="56.39" cy="67.78" rx="1.22" ry="1.13" fill="#333333"></ellipse><ellipse _ngcontent-ng-c1875793522="" cx="51.03" cy="72.12" rx="1.22" ry="1.13" fill="#333333"></ellipse><ellipse _ngcontent-ng-c1875793522="" cx="61.76" cy="72.12" rx="1.22" ry="1.13" fill="#333333"></ellipse><ellipse _ngcontent-ng-c1875793522="" cx="67.12" cy="72.12" rx="1.22" ry="1.13" fill="#333333"></ellipse><ellipse _ngcontent-ng-c1875793522="" cx="72.49" cy="72.12" rx="1.22" ry="1.13" fill="#333333"></ellipse><ellipse _ngcontent-ng-c1875793522="" cx="51.03" cy="76.45" rx="1.22" ry="1.13" fill="#333333"></ellipse><ellipse _ngcontent-ng-c1875793522="" cx="56.39" cy="76.45" rx="1.22" ry="1.13" fill="#333333"></ellipse><ellipse _ngcontent-ng-c1875793522="" cx="67.12" cy="76.45" rx="1.22" ry="1.13" fill="#333333"></ellipse><path _ngcontent-ng-c1875793522="" d="M80.24,46.7H78.43a3.25,3.25,0,0,0-3.36-3H47.84a3.54,3.54,0,0,0-2.14.71,3.54,3.54,0,0,0-2.14-.71H29.68a1.13,1.13,0,1,0,0,2.26H43.55a.88.88,0,0,1,.92.84v33a.88.88,0,0,1-.92.84H16.32a.88.88,0,0,1-.92-.84v-33a.88.88,0,0,1,.92-.84h9a1.13,1.13,0,1,0,0-2.26h-9a3.25,3.25,0,0,0-3.36,3H11.15a2.77,2.77,0,0,0-2.87,2.65V83.7a4.07,4.07,0,0,0,4.22,3.88H50.91a1.13,1.13,0,1,0,0-2.26H12.5a1.71,1.71,0,0,1-1.78-1.62V49.35a.41.41,0,0,1,.43-.39H13v30.8a3.24,3.24,0,0,0,3.36,3.1H43.55a3.54,3.54,0,0,0,2.14-.71,3.54,3.54,0,0,0,2.14.71H75.07a3.24,3.24,0,0,0,3.36-3.1V49h1.81a.41.41,0,0,1,.43.39V83.7a1.71,1.71,0,0,1-1.78,1.62H55.3a1.13,1.13,0,1,0,0,2.26h23.6a4.07,4.07,0,0,0,4.22-3.88V49.35A2.77,2.77,0,0,0,80.24,46.7Zm-33.32.05a.88.88,0,0,1,.92-.84H75.07a.88.88,0,0,1,.92.84v33a.88.88,0,0,1-.92.84H47.84a.88.88,0,0,1-.92-.84Z" fill="#333333"></path></svg>